<?xml version="1.0" encoding="UTF-8" standalone="no"?>
<svg width="264px" height="264px" viewBox="0 0 264 264" version="1.1" xmlns="http://www.w3.org/2000/svg" xmlns:xlink="http://www.w3.org/1999/xlink" xmlns:sketch="http://www.bohemiancoding.com/sketch/ns">
    <!-- Generator: Sketch 3.3.2 (12043) - http://www.bohemiancoding.com/sketch -->
    <title>Imported Layers Copy</title>
    <desc>Created with Sketch.</desc>
    <defs></defs>
    <g id="Page-1" stroke="none" stroke-width="1" fill="none" fill-rule="evenodd" sketch:type="MSPage">
        <g id="Home-page-Copy-3" sketch:type="MSArtboardGroup" transform="translate(-568.000000, -290.000000)">
            <g id="Imported-Layers-Copy" sketch:type="MSLayerGroup" transform="translate(567.500000, 289.601952)">
                <path d="M264.172,132.489 C264.172,205.198 205.23,264.139 132.522,264.139 C59.814,264.139 0.872,205.198 0.872,132.489 C0.872,59.781 59.814,0.839 132.522,0.839 C205.23,0.839 264.172,59.781 264.172,132.489" id="Fill-1" fill="#543F7B" sketch:type="MSShapeGroup"></path>
                <path d="M77.465,209.84 L169.502,258.866 C224.207,242.884 264.172,192.358 264.172,132.489 C264.172,124.101 263.378,115.9 261.879,107.947 L194,53 L77.465,209.84" id="Fill-2" fill="#42335D" sketch:type="MSShapeGroup"></path>
                <path d="M77.465,209.84 C-6.989,144.924 50.451,26.185 115.214,47.651 C115.214,47.651 106.729,167.308 90.676,203.113 C87.66,209.84 77.465,209.84 77.465,209.84 L77.465,209.84 Z" id="Fill-3" fill="#B27130" sketch:type="MSShapeGroup"></path>
                <path d="M77.465,209.84 C-6.989,144.924 50.451,26.185 115.214,47.651 C115.214,47.651 106.729,167.308 90.676,203.113 C87.66,209.84 77.465,209.84 77.465,209.84 L77.465,209.84 Z" id="Stroke-4" stroke="#343433" stroke-width="5" sketch:type="MSShapeGroup"></path>
                <path d="M188.58,210.77 C298.8,111.809 163.256,-5.019 115.214,47.651 L166.17,198.689 C166.17,198.689 175.777,215.271 188.58,210.77 L188.58,210.77 Z" id="Fill-5" fill="#B27130" sketch:type="MSShapeGroup"></path>
                <path d="M188.58,210.77 C298.8,111.809 163.256,-5.019 115.214,47.651 L166.17,198.689 C166.17,198.689 175.777,215.271 188.58,210.77 L188.58,210.77 Z" id="Stroke-6" stroke="#343433" stroke-width="5" sketch:type="MSShapeGroup"></path>
                <path d="M82.986,145.778 C82.986,153.949 76.362,160.573 68.19,160.573 C60.019,160.573 53.395,153.949 53.395,145.778 C53.395,137.607 60.019,130.982 68.19,130.982 C76.362,130.982 82.986,137.607 82.986,145.778 L82.986,145.778 Z" id="Fill-7" fill="#F3D5C3" sketch:type="MSShapeGroup"></path>
                <path d="M82.986,145.778 C82.986,153.949 76.362,160.573 68.19,160.573 C60.019,160.573 53.395,153.949 53.395,145.778 C53.395,137.607 60.019,130.982 68.19,130.982 C76.362,130.982 82.986,137.607 82.986,145.778 L82.986,145.778 Z" id="Stroke-8" stroke="#343433" stroke-width="5" sketch:type="MSShapeGroup"></path>
                <path d="M212.709,145.778 C212.709,153.949 206.085,160.573 197.914,160.573 C189.743,160.573 183.119,153.949 183.119,145.778 C183.119,137.607 189.743,130.982 197.914,130.982 C206.085,130.982 212.709,137.607 212.709,145.778 L212.709,145.778 Z" id="Fill-9" fill="#F3D5C3" sketch:type="MSShapeGroup"></path>
                <path d="M212.709,145.778 C212.709,153.949 206.085,160.573 197.914,160.573 C189.743,160.573 183.119,153.949 183.119,145.778 C183.119,137.607 189.743,130.982 197.914,130.982 C206.085,130.982 212.709,137.607 212.709,145.778 L212.709,145.778 Z" id="Stroke-10" stroke="#343433" stroke-width="5" sketch:type="MSShapeGroup"></path>
                <path d="M110.59,62.552 C86.958,62.552 67.8,81.71 67.8,105.343 L67.8,164.6 C67.799,185.186 94.419,209.84 115.308,220.243 C132.522,228.992 148.486,224.931 156.799,219.922 C171.513,211.056 197.914,184.037 197.914,166.461 L197.914,105.343 C197.914,81.71 178.756,62.552 155.123,62.552 L110.59,62.552 Z" id="Fill-11" fill="#F3D5C3" sketch:type="MSShapeGroup"></path>
                <path d="M155.123,62.552 L110.59,62.552 C86.958,62.552 67.8,81.71 67.8,105.343 L67.8,164.6 C67.799,185.186 94.419,209.84 115.308,220.243 C132.522,228.992 148.486,224.931 156.799,219.922 C171.513,211.056 197.914,184.037 197.914,166.461 L197.914,105.343 C197.914,81.71 178.756,62.552 155.123,62.552 L155.123,62.552 Z" id="Stroke-12" stroke="#343433" stroke-width="5" sketch:type="MSShapeGroup"></path>
                <path d="M110.44,134.288 C110.44,139.328 107.078,143.413 102.93,143.413 C98.782,143.413 95.419,139.328 95.419,134.288 C95.419,129.248 98.782,125.162 102.93,125.162 C107.078,125.162 110.44,129.248 110.44,134.288" id="Fill-13" fill="#343433" sketch:type="MSShapeGroup"></path>
                <path d="M170.82,134.288 C170.82,139.328 167.458,143.413 163.31,143.413 C159.162,143.413 155.799,139.328 155.799,134.288 C155.799,129.248 159.162,125.162 163.31,125.162 C167.458,125.162 170.82,129.248 170.82,134.288" id="Fill-14" fill="#343433" sketch:type="MSShapeGroup"></path>
                <path d="M143.454,155.274 C143.454,161.127 138.71,165.872 132.857,165.872 C127.004,165.872 122.259,161.127 122.259,155.274" id="Fill-15" fill="#F3D5C3" sketch:type="MSShapeGroup"></path>
                <path d="M143.454,155.274 C143.454,161.127 138.71,165.872 132.857,165.872 C127.004,165.872 122.259,161.127 122.259,155.274" id="Stroke-16" stroke="#343433" stroke-width="5" sketch:type="MSShapeGroup"></path>
                <path d="M158.109,179.037 C158.109,179.037 152.837,188.484 132.857,188.484 C117.799,188.484 110.977,179.037 110.977,179.037" id="Fill-17" fill="#F3D5C3" sketch:type="MSShapeGroup"></path>
                <path d="M158.109,179.037 C158.109,179.037 152.837,188.484 132.857,188.484 C117.799,188.484 110.977,179.037 110.977,179.037" id="Stroke-18" stroke="#343433" stroke-width="5" sketch:type="MSShapeGroup"></path>
                <path d="M124.634,194.619 C124.634,194.619 134.604,198.152 143.454,194.619" id="Fill-19" fill="#F3D5C3" sketch:type="MSShapeGroup"></path>
                <path d="M124.634,194.619 C124.634,194.619 134.604,198.152 143.454,194.619" id="Stroke-20" stroke="#DFC0AC" stroke-width="3" sketch:type="MSShapeGroup"></path>
                <path d="M155.389,68.552 L153.787,68.552 C168.683,74.543 184.205,89.116 184.205,106.156 L184.205,164.038 C184.205,180.684 159.201,206.273 145.267,214.67 C140.982,217.252 129.547,219.563 121.947,219.801 C136.584,225.493 149.795,221.919 156.976,217.591 C170.91,209.194 195.914,183.606 195.914,166.96 L195.914,109.078 C195.914,86.696 177.77,68.552 155.389,68.552" id="Fill-21" fill="#DEBFAC" sketch:type="MSShapeGroup"></path>
                <path d="M153.13,117.944 C153.13,117.944 168.968,109.113 177.21,122.065" id="Fill-22" fill="#F3D5C3" sketch:type="MSShapeGroup"></path>
                <path d="M153.13,117.944 C153.13,117.944 168.968,109.113 177.21,122.065" id="Stroke-23" stroke="#343433" stroke-width="3" sketch:type="MSShapeGroup"></path>
                <path d="M112.74,117.944 C112.74,117.944 96.903,109.113 88.66,122.065" id="Fill-24" fill="#F3D5C3" sketch:type="MSShapeGroup"></path>
                <path d="M112.74,117.944 C112.74,117.944 96.903,109.113 88.66,122.065" id="Stroke-25" stroke="#343433" stroke-width="3" sketch:type="MSShapeGroup"></path>
                <path d="M93.489,87.073 C93.489,87.073 103.439,98.471 124.634,100.132 C125.223,99.437 119.335,90.017 119.335,90.017 C119.335,90.017 132.522,98.953 161.294,106.353 C162.029,106.543 154.13,91.783 154.13,91.783 C154.13,91.783 166.17,101.062 183.119,109.884 C184.046,110.366 183.119,92.961 183.119,92.961 L197.914,125.637 C197.914,125.637 214.051,77.781 178.21,50.46 C150.539,29.365 124.634,38.366 115.214,47.651 C99.7,41.915 50.451,58.813 66.783,126.567 C67.961,126.861 79.689,88.165 79.689,88.165 C79.689,88.165 90.486,101.218 92.841,101.792 C94.419,102.177 93.489,87.073 93.489,87.073 L93.489,87.073 Z" id="Fill-26" fill="#B27130" sketch:type="MSShapeGroup"></path>
                <path d="M93.489,87.073 C93.489,87.073 103.439,98.471 124.634,100.132 C125.223,99.437 119.335,90.017 119.335,90.017 C119.335,90.017 132.522,98.953 161.294,106.353 C162.029,106.543 154.13,91.783 154.13,91.783 C154.13,91.783 166.17,101.062 183.119,109.884 C184.046,110.366 183.119,92.961 183.119,92.961 L197.914,125.637 C197.914,125.637 214.051,77.781 178.21,50.46 C150.539,29.365 124.634,38.366 115.214,47.651 C99.7,41.915 50.451,58.813 66.783,126.567 C67.961,126.861 79.689,88.165 79.689,88.165 C79.689,88.165 90.486,101.218 92.841,101.792 C94.419,102.177 93.489,87.073 93.489,87.073 L93.489,87.073 Z" id="Stroke-27" stroke="#343433" stroke-width="5" sketch:type="MSShapeGroup"></path>
                <path d="M108.719,130.465 C108.719,131.767 107.664,132.821 106.363,132.821 C105.061,132.821 104.007,131.767 104.007,130.465 C104.007,129.164 105.061,128.109 106.363,128.109 C107.664,128.109 108.719,129.164 108.719,130.465" id="Fill-28" fill="#FFFFFF" sketch:type="MSShapeGroup"></path>
                <path d="M168.666,129.63 C168.666,130.932 167.611,131.986 166.31,131.986 C165.009,131.986 163.954,130.932 163.954,129.63 C163.954,128.329 165.009,127.274 166.31,127.274 C167.611,127.274 168.666,128.329 168.666,129.63" id="Fill-29" fill="#FFFFFF" sketch:type="MSShapeGroup"></path>
            </g>
        </g>
    </g>
</svg>